<svg xmlns="http://www.w3.org/2000/svg" width="24.019" height="24.019" viewBox="0 0 24.019 24.019">
  <path id="phone-icon" d="M27.184,21.18a15.159,15.159,0,0,1-4.764-.761,1.362,1.362,0,0,0-1.361.32l-2.936,2.936a20.115,20.115,0,0,1-8.793-8.78l2.936-2.949A1.31,1.31,0,0,0,12.6,10.6a15.159,15.159,0,0,1-.761-4.764A1.338,1.338,0,0,0,10.5,4.5H5.834A1.338,1.338,0,0,0,4.5,5.834,22.682,22.682,0,0,0,27.184,28.519a1.338,1.338,0,0,0,1.334-1.334v-4.67A1.338,1.338,0,0,0,27.184,21.18ZM16.509,4.5V17.844l4-4h8.006V4.5Z" transform="translate(-4.5 -4.5)" fill="#ffd248"/>
</svg>
